<?xml version="1.0" encoding="utf-8"?>
<!-- Generator: Adobe Illustrator 19.1.0, SVG Export Plug-In . SVG Version: 6.00 Build 0)  -->
<svg version="1.1" id="Layer_1" xmlns="http://www.w3.org/2000/svg" xmlns:xlink="http://www.w3.org/1999/xlink" x="0px" y="0px"
	 viewBox="0 0 433 423.8" style="enable-background:new 0 0 433 423.8;" xml:space="preserve">
<style type="text/css">
	.st0{clip-path:url(#SVGID_2_);fill:#FFFFFF;stroke:#7F7F7F;stroke-miterlimit:10;}
</style>
<g>
	<g>
		<defs>
			<rect id="SVGID_1_" x="10" y="10" width="412.8" height="413.8"/>
		</defs>
		<clipPath id="SVGID_2_">
			<use xlink:href="#SVGID_1_"  style="overflow:visible;"/>
		</clipPath>
		<path class="st0" d="M12.3,116.7c-3.7-16.3-2.9-31.7,2.1-46.4l49.2,49.2l35.4-1.9L117.7,99l1.9-35.9L70.4,13.9
			c14.7-4.8,30.1-5.3,46.4-1.7c16.3,3.7,30.3,11.4,42.1,23.2c12.4,12.8,20.3,27.8,23.7,45.2c3.3,17.4,1.7,33.9-5,49.5
			c36,51,77.1,93.2,123.4,126.7c15.6-7,32.4-8.9,50.2-5.7c17.8,3.2,33.1,11.2,45.9,23.9c11.8,11.8,19.5,25.8,23.2,42.1
			c3.7,16.3,2.9,31.7-2.1,46.4l-49.3-49.2l-35.4,1.9l-18.6,18.6l-1.9,35.4l49.2,49.2c-14.7,5.1-30.1,5.8-46.4,2.1
			c-16.3-3.7-30.3-11.4-42.1-23.2c-11.5-11.5-19.1-25.1-22.9-40.9c-3.8-15.8-3.3-31,1.4-45.7c-36.7-50.4-81.1-93.9-133.4-130.5
			c-14.7,3.8-29.4,3.7-44.2-0.2c-14.8-4-27.8-11.6-39-22.7C23.7,146.8,16,132.9,12.3,116.7L12.3,116.7z M12.3,116.7"/>
	</g>
</g>
</svg>
